<svg width="24" height="5" viewBox="0 0 24 5" fill="none" xmlns="http://www.w3.org/2000/svg">
<path d="M2.72714 1.55305H1.57686V1.19739C1.57686 1.03142 1.56215 0.925706 1.53273 0.880261C1.50331 0.834815 1.45428 0.812092 1.38563 0.812092C1.31111 0.812092 1.25423 0.842719 1.215 0.903972C1.17774 0.965224 1.15911 1.05809 1.15911 1.18257C1.15911 1.34262 1.18068 1.46315 1.22383 1.54416C1.26502 1.62517 1.38171 1.72298 1.57392 1.83758C2.12503 2.16756 2.47217 2.43825 2.61535 2.64967C2.75852 2.86109 2.83011 3.20194 2.83011 3.6722C2.83011 4.01403 2.7899 4.26596 2.70949 4.42798C2.63104 4.59 2.47806 4.72634 2.25055 4.83699C2.02304 4.94566 1.75827 5 1.45624 5C1.12479 5 0.841383 4.93677 0.606031 4.81031C0.37264 4.68386 0.219662 4.52282 0.147095 4.32721C0.0745281 4.13159 0.0382447 3.85398 0.0382447 3.49437V3.1802H1.18853V3.76408C1.18853 3.94388 1.20422 4.05947 1.2356 4.11085C1.26894 4.16222 1.3268 4.18791 1.40917 4.18791C1.49154 4.18791 1.55234 4.15531 1.59157 4.0901C1.63275 4.0249 1.65335 3.92808 1.65335 3.79964C1.65335 3.51709 1.6151 3.33235 1.53861 3.24541C1.46016 3.15847 1.26698 3.01324 0.959059 2.80972C0.65114 2.60423 0.447168 2.45505 0.347144 2.36218C0.247119 2.26931 0.163766 2.14088 0.0970826 1.97688C0.0323609 1.81288 0 1.60344 0 1.34855C0 0.981031 0.0460897 0.71231 0.138269 0.542383C0.23241 0.372456 0.383427 0.240071 0.591321 0.145228C0.799215 0.0484094 1.05026 0 1.34445 0C1.66609 0 1.93969 0.0523612 2.16524 0.157084C2.39274 0.261806 2.54278 0.394191 2.61535 0.554238C2.68987 0.71231 2.72714 0.982019 2.72714 1.36337V1.55305Z" fill="black"/>
<path d="M4.3746 0.100771V1.17961C4.47659 1.08477 4.58642 1.01363 4.70409 0.966212C4.82373 0.918791 4.95121 0.89508 5.08654 0.89508C5.29443 0.89508 5.47095 0.948429 5.61608 1.05513C5.76318 1.16183 5.85241 1.28532 5.88379 1.42561C5.91714 1.56392 5.93381 1.81782 5.93381 2.18731V4.89923H4.74528V2.131C4.74528 1.9018 4.73351 1.75459 4.70998 1.68939C4.6884 1.62418 4.63839 1.59158 4.55994 1.59158C4.48737 1.59158 4.43834 1.62517 4.41285 1.69235C4.38735 1.75953 4.3746 1.89291 4.3746 2.09247V4.89923H3.18607V0.100771H4.3746Z" fill="black"/>
<path d="M7.5695 0.100771V0.726141H6.34567V0.100771H7.5695ZM7.5695 0.966212V4.89923H6.34567V0.966212H7.5695Z" fill="black"/>
<path d="M9.18755 0.966212L9.14048 1.48192C9.31307 1.11243 9.56313 0.916815 9.89066 0.89508V2.27919C9.67296 2.27919 9.51312 2.30883 9.41113 2.36811C9.30914 2.42739 9.24638 2.51037 9.22285 2.61707C9.19931 2.72179 9.18755 2.96483 9.18755 3.34618V4.89923H7.99902V0.966212H9.18755Z" fill="black"/>
<path d="M11.5234 0.441612V1.06106H11.8441V1.68346H11.5234V3.78779C11.5234 4.04663 11.5362 4.19087 11.5617 4.22051C11.5891 4.25015 11.6999 4.26497 11.8941 4.26497V4.89923H11.4146C11.1439 4.89923 10.9507 4.88836 10.835 4.86663C10.7193 4.84292 10.6173 4.79056 10.5291 4.70954C10.4408 4.62656 10.3859 4.5327 10.3643 4.42798C10.3427 4.32128 10.3319 4.07232 10.3319 3.68109V1.68346H10.076V1.06106H10.3319V0.441612H11.5234Z" fill="black"/>
<path d="M14.7654 1.55305H13.6151V1.19739C13.6151 1.03142 13.6004 0.925706 13.571 0.880261C13.5416 0.834815 13.4925 0.812092 13.4239 0.812092C13.3493 0.812092 13.2925 0.842719 13.2532 0.903972C13.216 0.965224 13.1974 1.05809 13.1974 1.18257C13.1974 1.34262 13.2189 1.46315 13.2621 1.54416C13.3033 1.62517 13.42 1.72298 13.6122 1.83758C14.1633 2.16756 14.5104 2.43825 14.6536 2.64967C14.7968 2.86109 14.8683 3.20194 14.8683 3.6722C14.8683 4.01403 14.8281 4.26596 14.7477 4.42798C14.6693 4.59 14.5163 4.72634 14.2888 4.83699C14.0613 4.94566 13.7965 5 13.4945 5C13.163 5 12.8796 4.93677 12.6443 4.81031C12.4109 4.68386 12.2579 4.52282 12.1853 4.32721C12.1128 4.13159 12.0765 3.85398 12.0765 3.49437V3.1802H13.2268V3.76408C13.2268 3.94388 13.2425 4.05947 13.2738 4.11085C13.3072 4.16222 13.365 4.18791 13.4474 4.18791C13.5298 4.18791 13.5906 4.15531 13.6298 4.0901C13.671 4.0249 13.6916 3.92808 13.6916 3.79964C13.6916 3.51709 13.6533 3.33235 13.5769 3.24541C13.4984 3.15847 13.3052 3.01324 12.9973 2.80972C12.6894 2.60423 12.4854 2.45505 12.3854 2.36218C12.2854 2.26931 12.202 2.14088 12.1353 1.97688C12.0706 1.81288 12.0382 1.60344 12.0382 1.34855C12.0382 0.981031 12.0843 0.71231 12.1765 0.542383C12.2707 0.372456 12.4217 0.240071 12.6296 0.145228C12.8375 0.0484094 13.0885 0 13.3827 0C13.7043 0 13.9779 0.0523612 14.2035 0.157084C14.431 0.261806 14.581 0.394191 14.6536 0.554238C14.7281 0.71231 14.7654 0.982019 14.7654 1.36337V1.55305Z" fill="#EE2D24"/>
<path d="M17.7544 0.100771V1.06106H17.0189V4.89923H15.7803V1.06106H15.0478V0.100771H17.7544Z" fill="#EE2D24"/>
<path d="M20.8669 2.91049C20.8669 3.39261 20.8551 3.73444 20.8316 3.93598C20.81 4.13555 20.7394 4.31832 20.6198 4.48429C20.5021 4.65027 20.3422 4.77771 20.1402 4.86663C19.9382 4.95554 19.7029 5 19.4342 5C19.1792 5 18.9497 4.95851 18.7458 4.87552C18.5438 4.79056 18.381 4.6641 18.2574 4.49615C18.1339 4.3282 18.0603 4.14543 18.0368 3.94784C18.0132 3.75025 18.0015 3.40447 18.0015 2.91049V2.08951C18.0015 1.60739 18.0123 1.26655 18.0338 1.06698C18.0574 0.865442 18.128 0.681683 18.2456 0.515708C18.3653 0.349733 18.5261 0.222288 18.7281 0.133373C18.9301 0.0444576 19.1655 0 19.4342 0C19.6891 0 19.9176 0.0424817 20.1196 0.127445C20.3236 0.210433 20.4874 0.335902 20.6109 0.503853C20.7345 0.671804 20.808 0.854574 20.8316 1.05216C20.8551 1.24975 20.8669 1.59553 20.8669 2.08951V2.91049ZM19.6283 1.33373C19.6283 1.11045 19.6156 0.968188 19.5901 0.906935C19.5666 0.843707 19.5165 0.812092 19.4401 0.812092C19.3753 0.812092 19.3253 0.837779 19.29 0.889152C19.2567 0.93855 19.24 1.08674 19.24 1.33373V3.57439C19.24 3.85299 19.2508 4.0249 19.2724 4.0901C19.2959 4.15531 19.3489 4.18791 19.4312 4.18791C19.5156 4.18791 19.5695 4.15037 19.593 4.07528C19.6166 4.0002 19.6283 3.82138 19.6283 3.53883V1.33373Z" fill="#EE2D24"/>
<path d="M21.3317 0.100771H22.5791C22.9164 0.100771 23.1753 0.127445 23.3557 0.180794C23.5381 0.234143 23.6744 0.311203 23.7646 0.411974C23.8568 0.512745 23.9186 0.63525 23.95 0.77949C23.9833 0.921755 24 1.14305 24 1.44339V1.86129C24 2.16756 23.9686 2.39083 23.9059 2.53112C23.8431 2.67141 23.7274 2.7791 23.5587 2.85418C23.392 2.92926 23.1733 2.96681 22.9027 2.96681H22.5702V4.89923H21.3317V0.100771ZM22.5702 0.921755V2.14286C22.6055 2.14483 22.6359 2.14582 22.6614 2.14582C22.7752 2.14582 22.8536 2.11816 22.8968 2.06283C22.9419 2.00553 22.9645 1.88797 22.9645 1.71014V1.31595C22.9645 1.15195 22.939 1.04525 22.888 0.995851C22.837 0.946453 22.7311 0.921755 22.5702 0.921755Z" fill="#EE2D24"/>
</svg>
