<svg width="106" height="106" viewBox="0 0 106 106" fill="none" xmlns="http://www.w3.org/2000/svg">
<rect width="106" height="106" fill="white"/>
<path d="M49.2211 37.4019H29.3037V31.3557C29.3037 28.5341 29.049 26.737 28.5396 25.9644C28.0302 25.1919 27.1812 24.8056 25.9926 24.8056C24.7021 24.8056 23.7173 25.3262 23.0381 26.3675C22.3928 27.4088 22.0702 28.9876 22.0702 31.1037C22.0702 33.8245 22.4438 35.8735 23.1909 37.2507C23.9041 38.6279 25.9247 40.2907 29.2527 42.2389C38.7954 47.8484 44.8063 52.4503 47.2854 56.0445C49.7644 59.6386 51.004 65.4329 51.004 73.4274C51.004 79.2385 50.3078 83.5212 48.9154 86.2756C47.557 89.03 44.9082 91.3478 40.9688 93.2288C37.0295 95.0763 32.4449 96 27.2151 96C21.4759 96 16.5687 94.9251 12.4936 92.7753C8.45236 90.6256 5.80349 87.888 4.54698 84.5625C3.29047 81.2371 2.66222 76.5177 2.66222 70.4043V65.0634H22.5796V74.9893C22.5796 78.046 22.8513 80.0111 23.3947 80.8844C23.972 81.7578 24.9738 82.1944 26.4001 82.1944C27.8264 82.1944 28.8792 81.6402 29.5584 80.5317C30.2715 79.4232 30.6281 77.7773 30.6281 75.594C30.6281 70.7906 29.9659 67.6499 28.6414 66.1719C27.2831 64.6939 23.938 62.2251 18.6063 58.7653C13.2746 55.2719 9.74283 52.7358 8.01088 51.1571C6.27893 49.5783 4.83564 47.395 3.68101 44.607C2.56034 41.819 2 38.2584 2 33.9253C2 27.6775 2.79805 23.1093 4.39416 20.2205C6.02423 17.3318 8.63914 15.0812 12.2389 13.4689C15.8386 11.823 20.1855 11 25.2794 11C30.8488 11 35.5862 11.8901 39.4916 13.6704C43.4309 15.4507 46.0288 17.7012 47.2854 20.4221C48.5758 23.1093 49.2211 27.6943 49.2211 34.1772V37.4019Z" fill="black"/>
<path d="M103.217 37.4019H83.2997V31.3557C83.2997 28.5341 83.045 26.737 82.5356 25.9644C82.0262 25.1919 81.1772 24.8056 79.9886 24.8056C78.6982 24.8056 77.7133 25.3262 77.0341 26.3675C76.3889 27.4088 76.0663 28.9876 76.0663 31.1037C76.0663 33.8245 76.4398 35.8735 77.1869 37.2507C77.9001 38.6279 79.9207 40.2907 83.2488 42.2389C92.7915 47.8484 98.8023 52.4503 101.281 56.0445C103.76 59.6386 105 65.4329 105 73.4274C105 79.2385 104.304 83.5212 102.911 86.2756C101.553 89.03 98.9042 91.3478 94.9649 93.2288C91.0256 95.0763 86.441 96 81.2112 96C75.472 96 70.5648 94.9251 66.4896 92.7753C62.4484 90.6256 59.7995 87.888 58.543 84.5625C57.2865 81.2371 56.6583 76.5177 56.6583 70.4043V65.0634H76.5757V74.9893C76.5757 78.046 76.8473 80.0111 77.3907 80.8844C77.968 81.7578 78.9698 82.1944 80.3961 82.1944C81.8225 82.1944 82.8752 81.6402 83.5544 80.5317C84.2676 79.4232 84.6241 77.7773 84.6241 75.594C84.6241 70.7906 83.9619 67.6499 82.6375 66.1719C81.2791 64.6939 77.9341 62.2251 72.6024 58.7653C67.2707 55.2719 63.7389 52.7358 62.0069 51.1571C60.275 49.5783 58.8317 47.395 57.6771 44.607C56.5564 41.819 55.996 38.2584 55.996 33.9253C55.996 27.6775 56.7941 23.1093 58.3902 20.2205C60.0203 17.3318 62.6352 15.0812 66.2349 13.4689C69.8347 11.823 74.1815 11 79.2755 11C84.8449 11 89.5823 11.8901 93.4876 13.6704C97.427 15.4507 100.025 17.7012 101.281 20.4221C102.572 23.1093 103.217 27.6943 103.217 34.1772V37.4019Z" fill="#EE2D24"/>
</svg>
